<?xml version="1.0" encoding="UTF-8" standalone="no"?>
<!-- Svg Vector Icons : http://www.onlinewebfonts.com/icon -->

<svg
   version="1.1"
   x="0px"
   y="0px"
   viewBox="0 0 50 31"
   enable-background="new 0 0 1000 1000"
   xml:space="preserve"
   id="svg40"
   sodipodi:docname="4181c8035b6f18bd6ab0308e8e4709e8.svg"
   inkscape:version="1.1.1 (3bf5ae0d25, 2021-09-20)"
   width="50"
   height="31"
   xmlns:inkscape="http://www.inkscape.org/namespaces/inkscape"
   xmlns:sodipodi="http://sodipodi.sourceforge.net/DTD/sodipodi-0.dtd"
   xmlns="http://www.w3.org/2000/svg"
   xmlns:svg="http://www.w3.org/2000/svg"><defs
   id="defs44" /><sodipodi:namedview
   id="namedview42"
   pagecolor="#ffffff"
   bordercolor="#999999"
   borderopacity="1"
   inkscape:pageshadow="0"
   inkscape:pageopacity="0"
   inkscape:pagecheckerboard="0"
   showgrid="false"
   inkscape:zoom="0.64"
   inkscape:cx="91.40625"
   inkscape:cy="242.96875"
   inkscape:window-width="1366"
   inkscape:window-height="715"
   inkscape:window-x="-8"
   inkscape:window-y="-8"
   inkscape:window-maximized="1"
   inkscape:current-layer="svg40"
   units="px"
   width="100px" />
<metadata
   id="metadata2"> Svg Vector Icons : http://www.onlinewebfonts.com/icon </metadata>
<g
   id="g38"
   style="fill:#fffffff"
   transform="matrix(-0.04357441,0,0,0.04357441,45.224711,-3.6570003)"><g
     id="g6"
     style="fill:#ffffff"><path
       d="m 877.5,460.1 c -18.1,-90.7 -98,-159.7 -196,-159.7 -32.7,0 -61.7,7.3 -87.1,21.8 C 550.8,242.3 467.4,191.5 373,191.5 231.4,191.5 118.9,304 118.9,445.6 c 0,3.6 0,10.9 0,14.5 C 53.6,489.1 10,550.8 10,627 10,728.6 89.9,808.5 191.5,808.5 h 617 C 910.1,808.5 990,728.7 990,627 990,550.8 942.8,485.5 877.5,460.1 Z m -69,312.1 h -617 C 111.6,772.2 46.3,706.9 46.3,627 c 0,-69 47.2,-127 112.5,-141.6 -3.6,-14.5 -3.6,-25.4 -3.6,-39.9 0,-119.8 98,-217.8 217.8,-217.8 94.4,0 174.2,61.7 206.9,145.2 29,-21.8 65.3,-36.3 101.6,-36.3 87.1,0 156.1,65.3 163.3,148.8 61.7,14.6 108.9,72.7 108.9,141.6 0,79.9 -65.3,145.2 -145.2,145.2 z"
       id="path4"
       style="fill:#00000" /></g><g
     id="g8"
     style="fill:#ffffff" /><g
     id="g10"
     style="fill:#ffffff" /><g
     id="g12"
     style="fill:#ffffff" /><g
     id="g14"
     style="fill:#ffffff" /><g
     id="g16"
     style="fill:#ffffff" /><g
     id="g18"
     style="fill:#ffffff" /><g
     id="g20"
     style="fill:#ffffff" /><g
     id="g22"
     style="fill:#ffffff" /><g
     id="g24"
     style="fill:#ffffff" /><g
     id="g26"
     style="fill:#ffffff" /><g
     id="g28"
     style="fill:#ffffff" /><g
     id="g30"
     style="fill:#ffffff" /><g
     id="g32"
     style="fill:#ffffff" /><g
     id="g34"
     style="fill:#ffffff" /><g
     id="g36"
     style="fill:#ffffff" /></g>
</svg>
