<?xml version="1.0" encoding="UTF-8" standalone="no"?>
<!-- Generator: Adobe Illustrator 17.1.0, SVG Export Plug-In . SVG Version: 6.00 Build 0)  -->

<svg
   version="1.1"
   id="Capa_1"
   x="0px"
   y="0px"
   viewBox="0 0 21.000001 30.000001"
   xml:space="preserve"
   sodipodi:docname="humidity-svgrepo-com.svg"
   width="21"
   height="30"
   inkscape:version="1.1.1 (3bf5ae0d25, 2021-09-20)"
   xmlns:inkscape="http://www.inkscape.org/namespaces/inkscape"
   xmlns:sodipodi="http://sodipodi.sourceforge.net/DTD/sodipodi-0.dtd"
   xmlns="http://www.w3.org/2000/svg"
   xmlns:svg="http://www.w3.org/2000/svg"><defs
   id="defs45" /><sodipodi:namedview
   id="namedview43"
   pagecolor="#ffffff"
   bordercolor="#999999"
   borderopacity="1"
   inkscape:pageshadow="0"
   inkscape:pageopacity="0"
   inkscape:pagecheckerboard="0"
   showgrid="false"
   width="30px"
   inkscape:zoom="2.6917756"
   inkscape:cx="3.9007709"
   inkscape:cy="39.564962"
   inkscape:window-width="1366"
   inkscape:window-height="715"
   inkscape:window-x="-8"
   inkscape:window-y="-8"
   inkscape:window-maximized="1"
   inkscape:current-layer="Capa_1" />
<g
   id="g10"
   transform="matrix(0.09018206,0,0,0.09018206,-3.6480695,1.2494272e-5)"
   style="fill:#ffffff">
	<path
   d="m 209.306,50.798 c -2.452,-3.337 -7.147,-4.055 -10.485,-1.602 -3.338,2.453 -4.055,7.147 -1.603,10.485 54.576,74.266 66.032,123.541 66.032,151.8 0,27.691 -8.272,52.794 -23.293,70.685 -17.519,20.866 -42.972,31.446 -75.651,31.446 -73.031,0 -98.944,-55.018 -98.944,-102.131 0,-52.227 28.103,-103.234 51.679,-136.829 25.858,-36.847 52.11,-61.415 52.37,-61.657 3.035,-2.819 3.209,-7.565 0.39,-10.6 -2.819,-3.034 -7.565,-3.209 -10.599,-0.39 -1.11,1.031 -27.497,25.698 -54.254,63.765 -24.901,35.428 -54.586,89.465 -54.586,145.71 0,31.062 9.673,59.599 27.236,80.353 20.361,24.061 50.345,36.779 86.708,36.779 36.794,0 66.926,-12.726 87.139,-36.801 17.286,-20.588 26.806,-49.117 26.806,-80.33 C 278.25,156.216 240.758,93.597 209.306,50.798 Z"
   id="path2"
   style="fill:#ffffff" />
	<path
   d="m 198.43,148.146 -95.162,95.162 c -2.929,2.929 -2.929,7.678 0,10.606 1.465,1.464 3.385,2.197 5.304,2.197 1.919,0 3.839,-0.732 5.304,-2.197 l 95.162,-95.162 c 2.929,-2.929 2.929,-7.678 0,-10.606 -2.931,-2.929 -7.679,-2.929 -10.608,0 z"
   id="path4"
   style="fill:#ffffff" />
	<path
   d="m 191.965,207.899 c -13.292,0 -24.106,10.814 -24.106,24.106 0,13.292 10.814,24.106 24.106,24.106 13.292,0 24.106,-10.814 24.106,-24.106 0,-13.292 -10.814,-24.106 -24.106,-24.106 z m 0,33.212 c -5.021,0 -9.106,-4.085 -9.106,-9.106 0,-5.021 4.085,-9.106 9.106,-9.106 5.021,0 9.106,4.085 9.106,9.106 0,5.021 -4.085,9.106 -9.106,9.106 z"
   id="path6"
   style="fill:#ffffff" />
	<path
   d="m 125.178,194.162 c 13.292,0 24.106,-10.814 24.106,-24.106 0,-13.292 -10.814,-24.106 -24.106,-24.106 -13.292,0 -24.106,10.814 -24.106,24.106 0,13.292 10.814,24.106 24.106,24.106 z m 0,-33.213 c 5.021,0 9.106,4.085 9.106,9.106 0,5.021 -4.085,9.106 -9.106,9.106 -5.021,0 -9.106,-4.085 -9.106,-9.106 0,-5.021 4.084,-9.106 9.106,-9.106 z"
   id="path8"
   style="fill:#ffffff" />
</g>
<g
   id="g12">
</g>
<g
   id="g14">
</g>
<g
   id="g16">
</g>
<g
   id="g18">
</g>
<g
   id="g20">
</g>
<g
   id="g22">
</g>
<g
   id="g24">
</g>
<g
   id="g26">
</g>
<g
   id="g28">
</g>
<g
   id="g30">
</g>
<g
   id="g32">
</g>
<g
   id="g34">
</g>
<g
   id="g36">
</g>
<g
   id="g38">
</g>
<g
   id="g40">
</g>
</svg>
