<?xml version="1.0" encoding="UTF-8" standalone="no"?>
<!-- Generator: Adobe Illustrator 19.0.0, SVG Export Plug-In . SVG Version: 6.00 Build 0)  -->

<svg
   version="1.1"
   id="Layer_1"
   x="0px"
   y="0px"
   viewBox="0 0 31 30"
   xml:space="preserve"
   sodipodi:docname="wind-svgrepo-com.svg"
   width="31"
   height="30"
   inkscape:version="1.1.1 (3bf5ae0d25, 2021-09-20)"
   xmlns:inkscape="http://www.inkscape.org/namespaces/inkscape"
   xmlns:sodipodi="http://sodipodi.sourceforge.net/DTD/sodipodi-0.dtd"
   xmlns="http://www.w3.org/2000/svg"
   xmlns:svg="http://www.w3.org/2000/svg"><defs
   id="defs53" /><sodipodi:namedview
   id="namedview51"
   pagecolor="#ffffff"
   bordercolor="#999999"
   borderopacity="1"
   inkscape:pageshadow="0"
   inkscape:pageopacity="0"
   inkscape:pagecheckerboard="0"
   showgrid="false"
   height="30px"
   inkscape:zoom="4.359375"
   inkscape:cx="19.842294"
   inkscape:cy="54.480287"
   inkscape:window-width="1366"
   inkscape:window-height="715"
   inkscape:window-x="-8"
   inkscape:window-y="-8"
   inkscape:window-maximized="1"
   inkscape:current-layer="Layer_1" />
<g
   id="g6">
	<path
   style="fill:#ffffff"
   d="M 391.217,235.56 H 36.404 c -14.472,0 -26.205,-11.732 -26.205,-26.204 0,-14.473 11.733,-26.205 26.205,-26.205 h 354.813 c 32.078,0 58.174,-26.098 58.174,-58.174 0,-32.076 -26.098,-58.174 -58.174,-58.174 -32.076,0 -58.174,26.098 -58.174,58.174 0,14.473 -11.733,26.205 -26.205,26.205 -14.472,0 -26.205,-11.732 -26.205,-26.205 0,-60.976 49.608,-110.584 110.584,-110.584 60.976,0 110.584,49.607 110.584,110.583 0,60.976 -49.608,110.584 -110.584,110.584 z"
   id="path2" />
	<path
   style="fill:#ffffff"
   d="m 391.217,497.608 c -60.976,0 -110.584,-49.608 -110.584,-110.584 0,-14.473 11.733,-26.205 26.205,-26.205 14.472,0 26.205,11.732 26.205,26.205 0,32.077 26.098,58.174 58.174,58.174 32.076,0 58.174,-26.098 58.174,-58.174 0,-32.076 -26.098,-58.174 -58.174,-58.174 H 36.404 c -14.472,-0.001 -26.205,-11.733 -26.205,-26.206 0,-14.473 11.733,-26.205 26.205,-26.205 h 354.813 c 60.976,0 110.584,49.609 110.584,110.585 0,60.976 -49.608,110.584 -110.584,110.584 z"
   id="path4" />
</g>
<g
   id="g18"
   transform="matrix(0.05973858,0,0,0.05973858,0,-0.18651609)"
   style="fill:#ffffff">
	<path
   style="fill:#ffffff"
   d="M 391.217,245.759 H 36.404 C 16.331,245.759 0,229.429 0,209.356 0,189.283 16.331,172.952 36.404,172.952 h 354.813 c 26.454,0 47.975,-21.522 47.975,-47.976 C 439.192,98.522 417.67,77 391.217,77 c -26.455,0 -47.976,21.522 -47.976,47.976 0,20.073 -16.331,36.404 -36.403,36.404 -20.074,0 -36.404,-16.331 -36.404,-36.404 0,-66.6 54.183,-120.783 120.784,-120.783 66.599,0 120.782,54.183 120.782,120.783 0,66.6 -54.183,120.783 -120.783,120.783 z M 36.404,193.35 c -8.825,0 -16.006,7.18 -16.006,16.006 0,8.825 7.18,16.006 16.006,16.006 h 354.813 c 55.352,0 100.385,-45.033 100.385,-100.385 0,-55.352 -45.032,-100.385 -100.385,-100.385 -55.353,0 -100.386,45.033 -100.386,100.385 0,8.825 7.18,16.006 16.006,16.006 8.824,0 16.005,-7.18 16.005,-16.006 0,-37.701 30.672,-68.374 68.374,-68.374 37.701,0 68.373,30.672 68.373,68.374 0,37.702 -30.672,68.374 -68.373,68.374 z"
   id="path8" />
	<path
   style="fill:#ffffff"
   d="m 391.217,507.807 c -66.601,0 -120.784,-54.183 -120.784,-120.783 0,-20.073 16.331,-36.404 36.404,-36.404 20.073,0 36.403,16.331 36.403,36.404 0,26.454 21.522,47.976 47.976,47.976 26.454,0 47.975,-21.522 47.975,-47.976 0,-26.454 -21.522,-47.976 -47.975,-47.976 H 36.404 C 16.331,339.048 0,322.718 0,302.644 0,282.57 16.331,266.24 36.404,266.24 h 354.813 c 66.6,0 120.783,54.183 120.783,120.783 0,66.6 -54.183,120.784 -120.783,120.784 z M 306.838,371.018 c -8.825,0 -16.006,7.18 -16.006,16.006 0,55.352 45.033,100.385 100.386,100.385 55.353,0 100.384,-45.033 100.384,-100.385 0,-55.352 -45.032,-100.385 -100.385,-100.385 H 36.404 c -8.825,0 -16.006,7.18 -16.006,16.006 0,8.826 7.18,16.006 16.006,16.006 h 354.813 c 37.701,0 68.373,30.672 68.373,68.374 0,37.702 -30.672,68.375 -68.373,68.375 -37.702,0 -68.374,-30.672 -68.374,-68.374 0,-8.827 -7.181,-16.008 -16.005,-16.008 z"
   id="path10" />
	<path
   style="fill:#ffffff"
   d="M 171.621,153.518 H 24.874 c -5.632,0 -10.199,-4.566 -10.199,-10.199 0,-5.633 4.567,-10.199 10.199,-10.199 h 146.747 c 5.632,0 10.199,4.566 10.199,10.199 0,5.633 -4.567,10.199 -10.199,10.199 z"
   id="path12" />
	<path
   style="fill:#ffffff"
   d="m 222.982,153.518 h -7.337 c -5.632,0 -10.199,-4.566 -10.199,-10.199 0,-5.633 4.567,-10.199 10.199,-10.199 h 7.337 c 5.632,0 10.199,4.566 10.199,10.199 0,5.633 -4.567,10.199 -10.199,10.199 z"
   id="path14" />
	<path
   style="fill:#ffffff"
   d="M 222.982,378.88 H 24.874 c -5.632,0 -10.199,-4.566 -10.199,-10.199 0,-5.633 4.567,-10.199 10.199,-10.199 h 198.108 c 5.632,0 10.199,4.566 10.199,10.199 0,5.633 -4.567,10.199 -10.199,10.199 z"
   id="path16" />
</g>
<g
   id="g20">
</g>
<g
   id="g22">
</g>
<g
   id="g24">
</g>
<g
   id="g26">
</g>
<g
   id="g28">
</g>
<g
   id="g30">
</g>
<g
   id="g32">
</g>
<g
   id="g34">
</g>
<g
   id="g36">
</g>
<g
   id="g38">
</g>
<g
   id="g40">
</g>
<g
   id="g42">
</g>
<g
   id="g44">
</g>
<g
   id="g46">
</g>
<g
   id="g48">
</g>
</svg>
